<mxfile host="Electron" modified="2023-12-27T06:08:10.234Z" agent="Mozilla/5.0 (X11; Linux x86_64) AppleWebKit/537.36 (KHTML, like Gecko) draw.io/22.1.2 Chrome/114.0.5735.289 Electron/25.9.4 Safari/537.36" etag="YVbSvelUq6OZwYB-XunO" version="22.1.2" type="device">
  <diagram id="C5RBs43oDa-KdzZeNtuy" name="Page-1">
    <mxGraphModel dx="1687" dy="1044" grid="1" gridSize="10" guides="1" tooltips="1" connect="1" arrows="1" fold="1" page="1" pageScale="1" pageWidth="1169" pageHeight="827" math="0" shadow="0">
      <root>
        <mxCell id="WIyWlLk6GJQsqaUBKTNV-0" />
        <mxCell id="WIyWlLk6GJQsqaUBKTNV-1" parent="WIyWlLk6GJQsqaUBKTNV-0" />
        <mxCell id="ND2nk44NkYMLTYRBF1Ve-107" value="api" style="shape=folder;fontStyle=1;tabWidth=110;tabHeight=30;tabPosition=left;html=1;boundedLbl=1;labelInHeader=1;container=1;collapsible=0;whiteSpace=wrap;" vertex="1" parent="WIyWlLk6GJQsqaUBKTNV-1">
          <mxGeometry x="1310" y="680" width="220" height="110" as="geometry" />
        </mxCell>
        <mxCell id="ND2nk44NkYMLTYRBF1Ve-108" value="" style="html=1;strokeColor=none;resizeWidth=1;resizeHeight=1;fillColor=none;part=1;connectable=0;allowArrows=0;deletable=0;whiteSpace=wrap;" vertex="1" parent="ND2nk44NkYMLTYRBF1Ve-107">
          <mxGeometry width="219.99999999999997" height="77" relative="1" as="geometry">
            <mxPoint y="30" as="offset" />
          </mxGeometry>
        </mxCell>
        <mxCell id="ND2nk44NkYMLTYRBF1Ve-92" value="database" style="swimlane;fontStyle=1;align=center;verticalAlign=top;childLayout=stackLayout;horizontal=1;startSize=26;horizontalStack=0;resizeParent=1;resizeParentMax=0;resizeLast=0;collapsible=1;marginBottom=0;whiteSpace=wrap;html=1;" vertex="1" parent="ND2nk44NkYMLTYRBF1Ve-107">
          <mxGeometry x="30" y="50" width="160" height="34" as="geometry" />
        </mxCell>
        <mxCell id="ND2nk44NkYMLTYRBF1Ve-94" value="" style="line;strokeWidth=1;fillColor=none;align=left;verticalAlign=middle;spacingTop=-1;spacingLeft=3;spacingRight=3;rotatable=0;labelPosition=right;points=[];portConstraint=eastwest;strokeColor=inherit;" vertex="1" parent="ND2nk44NkYMLTYRBF1Ve-92">
          <mxGeometry y="26" width="160" height="8" as="geometry" />
        </mxCell>
        <mxCell id="ND2nk44NkYMLTYRBF1Ve-109" value="views" style="shape=folder;fontStyle=1;tabWidth=110;tabHeight=30;tabPosition=left;html=1;boundedLbl=1;labelInHeader=1;container=1;collapsible=0;whiteSpace=wrap;" vertex="1" parent="WIyWlLk6GJQsqaUBKTNV-1">
          <mxGeometry x="1290" y="260" width="250" height="360" as="geometry" />
        </mxCell>
        <mxCell id="ND2nk44NkYMLTYRBF1Ve-110" value="" style="html=1;strokeColor=none;resizeWidth=1;resizeHeight=1;fillColor=none;part=1;connectable=0;allowArrows=0;deletable=0;whiteSpace=wrap;" vertex="1" parent="ND2nk44NkYMLTYRBF1Ve-109">
          <mxGeometry width="250" height="251.99999999999997" relative="1" as="geometry">
            <mxPoint y="30" as="offset" />
          </mxGeometry>
        </mxCell>
        <mxCell id="ND2nk44NkYMLTYRBF1Ve-96" value="driver_view" style="swimlane;fontStyle=1;align=center;verticalAlign=top;childLayout=stackLayout;horizontal=1;startSize=26;horizontalStack=0;resizeParent=1;resizeParentMax=0;resizeLast=0;collapsible=1;marginBottom=0;whiteSpace=wrap;html=1;" vertex="1" parent="ND2nk44NkYMLTYRBF1Ve-109">
          <mxGeometry x="45" y="57" width="160" height="34" as="geometry" />
        </mxCell>
        <mxCell id="ND2nk44NkYMLTYRBF1Ve-97" value="" style="line;strokeWidth=1;fillColor=none;align=left;verticalAlign=middle;spacingTop=-1;spacingLeft=3;spacingRight=3;rotatable=0;labelPosition=right;points=[];portConstraint=eastwest;strokeColor=inherit;" vertex="1" parent="ND2nk44NkYMLTYRBF1Ve-96">
          <mxGeometry y="26" width="160" height="8" as="geometry" />
        </mxCell>
        <mxCell id="ND2nk44NkYMLTYRBF1Ve-98" value="passenger_view" style="swimlane;fontStyle=1;align=center;verticalAlign=top;childLayout=stackLayout;horizontal=1;startSize=26;horizontalStack=0;resizeParent=1;resizeParentMax=0;resizeLast=0;collapsible=1;marginBottom=0;whiteSpace=wrap;html=1;" vertex="1" parent="ND2nk44NkYMLTYRBF1Ve-109">
          <mxGeometry x="45" y="117" width="160" height="34" as="geometry" />
        </mxCell>
        <mxCell id="ND2nk44NkYMLTYRBF1Ve-99" value="" style="line;strokeWidth=1;fillColor=none;align=left;verticalAlign=middle;spacingTop=-1;spacingLeft=3;spacingRight=3;rotatable=0;labelPosition=right;points=[];portConstraint=eastwest;strokeColor=inherit;" vertex="1" parent="ND2nk44NkYMLTYRBF1Ve-98">
          <mxGeometry y="26" width="160" height="8" as="geometry" />
        </mxCell>
        <mxCell id="ND2nk44NkYMLTYRBF1Ve-100" value="login_view" style="swimlane;fontStyle=1;align=center;verticalAlign=top;childLayout=stackLayout;horizontal=1;startSize=26;horizontalStack=0;resizeParent=1;resizeParentMax=0;resizeLast=0;collapsible=1;marginBottom=0;whiteSpace=wrap;html=1;" vertex="1" parent="ND2nk44NkYMLTYRBF1Ve-109">
          <mxGeometry x="45" y="178" width="160" height="34" as="geometry" />
        </mxCell>
        <mxCell id="ND2nk44NkYMLTYRBF1Ve-101" value="" style="line;strokeWidth=1;fillColor=none;align=left;verticalAlign=middle;spacingTop=-1;spacingLeft=3;spacingRight=3;rotatable=0;labelPosition=right;points=[];portConstraint=eastwest;strokeColor=inherit;" vertex="1" parent="ND2nk44NkYMLTYRBF1Ve-100">
          <mxGeometry y="26" width="160" height="8" as="geometry" />
        </mxCell>
        <mxCell id="ND2nk44NkYMLTYRBF1Ve-102" value="register_view" style="swimlane;fontStyle=1;align=center;verticalAlign=top;childLayout=stackLayout;horizontal=1;startSize=26;horizontalStack=0;resizeParent=1;resizeParentMax=0;resizeLast=0;collapsible=1;marginBottom=0;whiteSpace=wrap;html=1;" vertex="1" parent="ND2nk44NkYMLTYRBF1Ve-109">
          <mxGeometry x="45" y="238" width="160" height="34" as="geometry" />
        </mxCell>
        <mxCell id="ND2nk44NkYMLTYRBF1Ve-103" value="" style="line;strokeWidth=1;fillColor=none;align=left;verticalAlign=middle;spacingTop=-1;spacingLeft=3;spacingRight=3;rotatable=0;labelPosition=right;points=[];portConstraint=eastwest;strokeColor=inherit;" vertex="1" parent="ND2nk44NkYMLTYRBF1Ve-102">
          <mxGeometry y="26" width="160" height="8" as="geometry" />
        </mxCell>
        <mxCell id="ND2nk44NkYMLTYRBF1Ve-104" value="index_view" style="swimlane;fontStyle=1;align=center;verticalAlign=top;childLayout=stackLayout;horizontal=1;startSize=26;horizontalStack=0;resizeParent=1;resizeParentMax=0;resizeLast=0;collapsible=1;marginBottom=0;whiteSpace=wrap;html=1;" vertex="1" parent="ND2nk44NkYMLTYRBF1Ve-109">
          <mxGeometry x="45" y="299" width="160" height="34" as="geometry" />
        </mxCell>
        <mxCell id="ND2nk44NkYMLTYRBF1Ve-105" value="" style="line;strokeWidth=1;fillColor=none;align=left;verticalAlign=middle;spacingTop=-1;spacingLeft=3;spacingRight=3;rotatable=0;labelPosition=right;points=[];portConstraint=eastwest;strokeColor=inherit;" vertex="1" parent="ND2nk44NkYMLTYRBF1Ve-104">
          <mxGeometry y="26" width="160" height="8" as="geometry" />
        </mxCell>
        <mxCell id="ND2nk44NkYMLTYRBF1Ve-112" value="models" style="shape=folder;fontStyle=1;tabWidth=110;tabHeight=30;tabPosition=left;html=1;boundedLbl=1;labelInHeader=1;container=1;collapsible=0;whiteSpace=wrap;" vertex="1" parent="WIyWlLk6GJQsqaUBKTNV-1">
          <mxGeometry x="490" y="227" width="690" height="583" as="geometry" />
        </mxCell>
        <mxCell id="ND2nk44NkYMLTYRBF1Ve-113" value="" style="html=1;strokeColor=none;resizeWidth=1;resizeHeight=1;fillColor=none;part=1;connectable=0;allowArrows=0;deletable=0;whiteSpace=wrap;" vertex="1" parent="ND2nk44NkYMLTYRBF1Ve-112">
          <mxGeometry width="690.0000000000002" height="408.1" relative="1" as="geometry">
            <mxPoint y="30" as="offset" />
          </mxGeometry>
        </mxCell>
        <mxCell id="ND2nk44NkYMLTYRBF1Ve-42" value="Microbus" style="swimlane;fontStyle=1;align=center;verticalAlign=top;childLayout=stackLayout;horizontal=1;startSize=26;horizontalStack=0;resizeParent=1;resizeParentMax=0;resizeLast=0;collapsible=1;marginBottom=0;whiteSpace=wrap;html=1;" vertex="1" parent="ND2nk44NkYMLTYRBF1Ve-112">
          <mxGeometry x="40" y="59" width="170" height="86" as="geometry" />
        </mxCell>
        <mxCell id="ND2nk44NkYMLTYRBF1Ve-43" value="driver: Driver" style="text;strokeColor=none;fillColor=none;align=left;verticalAlign=top;spacingLeft=4;spacingRight=4;overflow=hidden;rotatable=0;points=[[0,0.5],[1,0.5]];portConstraint=eastwest;whiteSpace=wrap;html=1;" vertex="1" parent="ND2nk44NkYMLTYRBF1Ve-42">
          <mxGeometry y="26" width="170" height="26" as="geometry" />
        </mxCell>
        <mxCell id="ND2nk44NkYMLTYRBF1Ve-44" value="plate_number: str" style="text;strokeColor=none;fillColor=none;align=left;verticalAlign=top;spacingLeft=4;spacingRight=4;overflow=hidden;rotatable=0;points=[[0,0.5],[1,0.5]];portConstraint=eastwest;whiteSpace=wrap;html=1;" vertex="1" parent="ND2nk44NkYMLTYRBF1Ve-42">
          <mxGeometry y="52" width="170" height="26" as="geometry" />
        </mxCell>
        <mxCell id="ND2nk44NkYMLTYRBF1Ve-49" value="" style="line;strokeWidth=1;fillColor=none;align=left;verticalAlign=middle;spacingTop=-1;spacingLeft=3;spacingRight=3;rotatable=0;labelPosition=right;points=[];portConstraint=eastwest;strokeColor=inherit;" vertex="1" parent="ND2nk44NkYMLTYRBF1Ve-42">
          <mxGeometry y="78" width="170" height="8" as="geometry" />
        </mxCell>
        <mxCell id="ND2nk44NkYMLTYRBF1Ve-30" value="Driver" style="swimlane;fontStyle=1;align=center;verticalAlign=top;childLayout=stackLayout;horizontal=1;startSize=26;horizontalStack=0;resizeParent=1;resizeParentMax=0;resizeLast=0;collapsible=1;marginBottom=0;whiteSpace=wrap;html=1;" vertex="1" parent="ND2nk44NkYMLTYRBF1Ve-112">
          <mxGeometry x="40" y="223" width="170" height="268" as="geometry" />
        </mxCell>
        <mxCell id="ND2nk44NkYMLTYRBF1Ve-31" value="id: int" style="text;strokeColor=none;fillColor=none;align=left;verticalAlign=top;spacingLeft=4;spacingRight=4;overflow=hidden;rotatable=0;points=[[0,0.5],[1,0.5]];portConstraint=eastwest;whiteSpace=wrap;html=1;" vertex="1" parent="ND2nk44NkYMLTYRBF1Ve-30">
          <mxGeometry y="26" width="170" height="26" as="geometry" />
        </mxCell>
        <mxCell id="ND2nk44NkYMLTYRBF1Ve-32" value="name: str" style="text;strokeColor=none;fillColor=none;align=left;verticalAlign=top;spacingLeft=4;spacingRight=4;overflow=hidden;rotatable=0;points=[[0,0.5],[1,0.5]];portConstraint=eastwest;whiteSpace=wrap;html=1;" vertex="1" parent="ND2nk44NkYMLTYRBF1Ve-30">
          <mxGeometry y="52" width="170" height="26" as="geometry" />
        </mxCell>
        <mxCell id="ND2nk44NkYMLTYRBF1Ve-33" value="phone: str" style="text;strokeColor=none;fillColor=none;align=left;verticalAlign=top;spacingLeft=4;spacingRight=4;overflow=hidden;rotatable=0;points=[[0,0.5],[1,0.5]];portConstraint=eastwest;whiteSpace=wrap;html=1;" vertex="1" parent="ND2nk44NkYMLTYRBF1Ve-30">
          <mxGeometry y="78" width="170" height="26" as="geometry" />
        </mxCell>
        <mxCell id="ND2nk44NkYMLTYRBF1Ve-34" value="longitude: float" style="text;strokeColor=none;fillColor=none;align=left;verticalAlign=top;spacingLeft=4;spacingRight=4;overflow=hidden;rotatable=0;points=[[0,0.5],[1,0.5]];portConstraint=eastwest;whiteSpace=wrap;html=1;" vertex="1" parent="ND2nk44NkYMLTYRBF1Ve-30">
          <mxGeometry y="104" width="170" height="26" as="geometry" />
        </mxCell>
        <mxCell id="ND2nk44NkYMLTYRBF1Ve-35" value="latitude: float" style="text;strokeColor=none;fillColor=none;align=left;verticalAlign=top;spacingLeft=4;spacingRight=4;overflow=hidden;rotatable=0;points=[[0,0.5],[1,0.5]];portConstraint=eastwest;whiteSpace=wrap;html=1;" vertex="1" parent="ND2nk44NkYMLTYRBF1Ve-30">
          <mxGeometry y="130" width="170" height="26" as="geometry" />
        </mxCell>
        <mxCell id="ND2nk44NkYMLTYRBF1Ve-36" value="bank_account: BankAccount" style="text;strokeColor=none;fillColor=none;align=left;verticalAlign=top;spacingLeft=4;spacingRight=4;overflow=hidden;rotatable=0;points=[[0,0.5],[1,0.5]];portConstraint=eastwest;whiteSpace=wrap;html=1;" vertex="1" parent="ND2nk44NkYMLTYRBF1Ve-30">
          <mxGeometry y="156" width="170" height="26" as="geometry" />
        </mxCell>
        <mxCell id="ND2nk44NkYMLTYRBF1Ve-37" value="" style="line;strokeWidth=1;fillColor=none;align=left;verticalAlign=middle;spacingTop=-1;spacingLeft=3;spacingRight=3;rotatable=0;labelPosition=right;points=[];portConstraint=eastwest;strokeColor=inherit;" vertex="1" parent="ND2nk44NkYMLTYRBF1Ve-30">
          <mxGeometry y="182" width="170" height="8" as="geometry" />
        </mxCell>
        <mxCell id="ND2nk44NkYMLTYRBF1Ve-38" value="start(Trip)" style="text;strokeColor=none;fillColor=none;align=left;verticalAlign=top;spacingLeft=4;spacingRight=4;overflow=hidden;rotatable=0;points=[[0,0.5],[1,0.5]];portConstraint=eastwest;whiteSpace=wrap;html=1;" vertex="1" parent="ND2nk44NkYMLTYRBF1Ve-30">
          <mxGeometry y="190" width="170" height="26" as="geometry" />
        </mxCell>
        <mxCell id="ND2nk44NkYMLTYRBF1Ve-39" value="end(Trip)" style="text;strokeColor=none;fillColor=none;align=left;verticalAlign=top;spacingLeft=4;spacingRight=4;overflow=hidden;rotatable=0;points=[[0,0.5],[1,0.5]];portConstraint=eastwest;whiteSpace=wrap;html=1;" vertex="1" parent="ND2nk44NkYMLTYRBF1Ve-30">
          <mxGeometry y="216" width="170" height="26" as="geometry" />
        </mxCell>
        <mxCell id="ND2nk44NkYMLTYRBF1Ve-40" value="accept(Request)" style="text;strokeColor=none;fillColor=none;align=left;verticalAlign=top;spacingLeft=4;spacingRight=4;overflow=hidden;rotatable=0;points=[[0,0.5],[1,0.5]];portConstraint=eastwest;whiteSpace=wrap;html=1;" vertex="1" parent="ND2nk44NkYMLTYRBF1Ve-30">
          <mxGeometry y="242" width="170" height="26" as="geometry" />
        </mxCell>
        <mxCell id="ND2nk44NkYMLTYRBF1Ve-53" value="BankAccount" style="swimlane;fontStyle=1;align=center;verticalAlign=top;childLayout=stackLayout;horizontal=1;startSize=26;horizontalStack=0;resizeParent=1;resizeParentMax=0;resizeLast=0;collapsible=1;marginBottom=0;whiteSpace=wrap;html=1;" vertex="1" parent="ND2nk44NkYMLTYRBF1Ve-112">
          <mxGeometry x="250" y="79" width="170" height="216" as="geometry" />
        </mxCell>
        <mxCell id="ND2nk44NkYMLTYRBF1Ve-55" value="id: int" style="text;strokeColor=none;fillColor=none;align=left;verticalAlign=top;spacingLeft=4;spacingRight=4;overflow=hidden;rotatable=0;points=[[0,0.5],[1,0.5]];portConstraint=eastwest;whiteSpace=wrap;html=1;" vertex="1" parent="ND2nk44NkYMLTYRBF1Ve-53">
          <mxGeometry y="26" width="170" height="26" as="geometry" />
        </mxCell>
        <mxCell id="ND2nk44NkYMLTYRBF1Ve-54" value="card_number: int" style="text;strokeColor=none;fillColor=none;align=left;verticalAlign=top;spacingLeft=4;spacingRight=4;overflow=hidden;rotatable=0;points=[[0,0.5],[1,0.5]];portConstraint=eastwest;whiteSpace=wrap;html=1;" vertex="1" parent="ND2nk44NkYMLTYRBF1Ve-53">
          <mxGeometry y="52" width="170" height="26" as="geometry" />
        </mxCell>
        <mxCell id="ND2nk44NkYMLTYRBF1Ve-59" value="card_cvv: str" style="text;strokeColor=none;fillColor=none;align=left;verticalAlign=top;spacingLeft=4;spacingRight=4;overflow=hidden;rotatable=0;points=[[0,0.5],[1,0.5]];portConstraint=eastwest;whiteSpace=wrap;html=1;" vertex="1" parent="ND2nk44NkYMLTYRBF1Ve-53">
          <mxGeometry y="78" width="170" height="26" as="geometry" />
        </mxCell>
        <mxCell id="ND2nk44NkYMLTYRBF1Ve-58" value="card_expire_year: str" style="text;strokeColor=none;fillColor=none;align=left;verticalAlign=top;spacingLeft=4;spacingRight=4;overflow=hidden;rotatable=0;points=[[0,0.5],[1,0.5]];portConstraint=eastwest;whiteSpace=wrap;html=1;" vertex="1" parent="ND2nk44NkYMLTYRBF1Ve-53">
          <mxGeometry y="104" width="170" height="26" as="geometry" />
        </mxCell>
        <mxCell id="ND2nk44NkYMLTYRBF1Ve-57" value="card_expire_month: str" style="text;strokeColor=none;fillColor=none;align=left;verticalAlign=top;spacingLeft=4;spacingRight=4;overflow=hidden;rotatable=0;points=[[0,0.5],[1,0.5]];portConstraint=eastwest;whiteSpace=wrap;html=1;" vertex="1" parent="ND2nk44NkYMLTYRBF1Ve-53">
          <mxGeometry y="130" width="170" height="26" as="geometry" />
        </mxCell>
        <mxCell id="ND2nk44NkYMLTYRBF1Ve-56" value="" style="line;strokeWidth=1;fillColor=none;align=left;verticalAlign=middle;spacingTop=-1;spacingLeft=3;spacingRight=3;rotatable=0;labelPosition=right;points=[];portConstraint=eastwest;strokeColor=inherit;" vertex="1" parent="ND2nk44NkYMLTYRBF1Ve-53">
          <mxGeometry y="156" width="170" height="8" as="geometry" />
        </mxCell>
        <mxCell id="ND2nk44NkYMLTYRBF1Ve-60" value="deposit(float): bool" style="text;strokeColor=none;fillColor=none;align=left;verticalAlign=top;spacingLeft=4;spacingRight=4;overflow=hidden;rotatable=0;points=[[0,0.5],[1,0.5]];portConstraint=eastwest;whiteSpace=wrap;html=1;" vertex="1" parent="ND2nk44NkYMLTYRBF1Ve-53">
          <mxGeometry y="164" width="170" height="26" as="geometry" />
        </mxCell>
        <mxCell id="ND2nk44NkYMLTYRBF1Ve-61" value="withdraw(float): bool" style="text;strokeColor=none;fillColor=none;align=left;verticalAlign=top;spacingLeft=4;spacingRight=4;overflow=hidden;rotatable=0;points=[[0,0.5],[1,0.5]];portConstraint=eastwest;whiteSpace=wrap;html=1;" vertex="1" parent="ND2nk44NkYMLTYRBF1Ve-53">
          <mxGeometry y="190" width="170" height="26" as="geometry" />
        </mxCell>
        <mxCell id="ND2nk44NkYMLTYRBF1Ve-18" value="Passenger" style="swimlane;fontStyle=1;align=center;verticalAlign=top;childLayout=stackLayout;horizontal=1;startSize=26;horizontalStack=0;resizeParent=1;resizeParentMax=0;resizeLast=0;collapsible=1;marginBottom=0;whiteSpace=wrap;html=1;" vertex="1" parent="ND2nk44NkYMLTYRBF1Ve-112">
          <mxGeometry x="470" y="63" width="170" height="216" as="geometry" />
        </mxCell>
        <mxCell id="ND2nk44NkYMLTYRBF1Ve-25" value="id: int" style="text;strokeColor=none;fillColor=none;align=left;verticalAlign=top;spacingLeft=4;spacingRight=4;overflow=hidden;rotatable=0;points=[[0,0.5],[1,0.5]];portConstraint=eastwest;whiteSpace=wrap;html=1;" vertex="1" parent="ND2nk44NkYMLTYRBF1Ve-18">
          <mxGeometry y="26" width="170" height="26" as="geometry" />
        </mxCell>
        <mxCell id="ND2nk44NkYMLTYRBF1Ve-22" value="name: str" style="text;strokeColor=none;fillColor=none;align=left;verticalAlign=top;spacingLeft=4;spacingRight=4;overflow=hidden;rotatable=0;points=[[0,0.5],[1,0.5]];portConstraint=eastwest;whiteSpace=wrap;html=1;" vertex="1" parent="ND2nk44NkYMLTYRBF1Ve-18">
          <mxGeometry y="52" width="170" height="26" as="geometry" />
        </mxCell>
        <mxCell id="ND2nk44NkYMLTYRBF1Ve-26" value="phone: str" style="text;strokeColor=none;fillColor=none;align=left;verticalAlign=top;spacingLeft=4;spacingRight=4;overflow=hidden;rotatable=0;points=[[0,0.5],[1,0.5]];portConstraint=eastwest;whiteSpace=wrap;html=1;" vertex="1" parent="ND2nk44NkYMLTYRBF1Ve-18">
          <mxGeometry y="78" width="170" height="26" as="geometry" />
        </mxCell>
        <mxCell id="ND2nk44NkYMLTYRBF1Ve-19" value="longitude: float" style="text;strokeColor=none;fillColor=none;align=left;verticalAlign=top;spacingLeft=4;spacingRight=4;overflow=hidden;rotatable=0;points=[[0,0.5],[1,0.5]];portConstraint=eastwest;whiteSpace=wrap;html=1;" vertex="1" parent="ND2nk44NkYMLTYRBF1Ve-18">
          <mxGeometry y="104" width="170" height="26" as="geometry" />
        </mxCell>
        <mxCell id="ND2nk44NkYMLTYRBF1Ve-23" value="latitude: float" style="text;strokeColor=none;fillColor=none;align=left;verticalAlign=top;spacingLeft=4;spacingRight=4;overflow=hidden;rotatable=0;points=[[0,0.5],[1,0.5]];portConstraint=eastwest;whiteSpace=wrap;html=1;" vertex="1" parent="ND2nk44NkYMLTYRBF1Ve-18">
          <mxGeometry y="130" width="170" height="26" as="geometry" />
        </mxCell>
        <mxCell id="ND2nk44NkYMLTYRBF1Ve-24" value="bank_account: BankAccount" style="text;strokeColor=none;fillColor=none;align=left;verticalAlign=top;spacingLeft=4;spacingRight=4;overflow=hidden;rotatable=0;points=[[0,0.5],[1,0.5]];portConstraint=eastwest;whiteSpace=wrap;html=1;" vertex="1" parent="ND2nk44NkYMLTYRBF1Ve-18">
          <mxGeometry y="156" width="170" height="26" as="geometry" />
        </mxCell>
        <mxCell id="ND2nk44NkYMLTYRBF1Ve-20" value="" style="line;strokeWidth=1;fillColor=none;align=left;verticalAlign=middle;spacingTop=-1;spacingLeft=3;spacingRight=3;rotatable=0;labelPosition=right;points=[];portConstraint=eastwest;strokeColor=inherit;" vertex="1" parent="ND2nk44NkYMLTYRBF1Ve-18">
          <mxGeometry y="182" width="170" height="8" as="geometry" />
        </mxCell>
        <mxCell id="ND2nk44NkYMLTYRBF1Ve-27" value="request(Trip)" style="text;strokeColor=none;fillColor=none;align=left;verticalAlign=top;spacingLeft=4;spacingRight=4;overflow=hidden;rotatable=0;points=[[0,0.5],[1,0.5]];portConstraint=eastwest;whiteSpace=wrap;html=1;" vertex="1" parent="ND2nk44NkYMLTYRBF1Ve-18">
          <mxGeometry y="190" width="170" height="26" as="geometry" />
        </mxCell>
        <mxCell id="ND2nk44NkYMLTYRBF1Ve-72" value="Request" style="swimlane;fontStyle=1;align=center;verticalAlign=top;childLayout=stackLayout;horizontal=1;startSize=26;horizontalStack=0;resizeParent=1;resizeParentMax=0;resizeLast=0;collapsible=1;marginBottom=0;whiteSpace=wrap;html=1;" vertex="1" parent="ND2nk44NkYMLTYRBF1Ve-112">
          <mxGeometry x="470" y="323" width="170" height="242" as="geometry" />
        </mxCell>
        <mxCell id="ND2nk44NkYMLTYRBF1Ve-73" value="passenger: Passenger" style="text;strokeColor=none;fillColor=none;align=left;verticalAlign=top;spacingLeft=4;spacingRight=4;overflow=hidden;rotatable=0;points=[[0,0.5],[1,0.5]];portConstraint=eastwest;whiteSpace=wrap;html=1;" vertex="1" parent="ND2nk44NkYMLTYRBF1Ve-72">
          <mxGeometry y="26" width="170" height="26" as="geometry" />
        </mxCell>
        <mxCell id="ND2nk44NkYMLTYRBF1Ve-74" value="trip: Trip" style="text;strokeColor=none;fillColor=none;align=left;verticalAlign=top;spacingLeft=4;spacingRight=4;overflow=hidden;rotatable=0;points=[[0,0.5],[1,0.5]];portConstraint=eastwest;whiteSpace=wrap;html=1;" vertex="1" parent="ND2nk44NkYMLTYRBF1Ve-72">
          <mxGeometry y="52" width="170" height="26" as="geometry" />
        </mxCell>
        <mxCell id="ND2nk44NkYMLTYRBF1Ve-75" value="description: str" style="text;strokeColor=none;fillColor=none;align=left;verticalAlign=top;spacingLeft=4;spacingRight=4;overflow=hidden;rotatable=0;points=[[0,0.5],[1,0.5]];portConstraint=eastwest;whiteSpace=wrap;html=1;" vertex="1" parent="ND2nk44NkYMLTYRBF1Ve-72">
          <mxGeometry y="78" width="170" height="26" as="geometry" />
        </mxCell>
        <mxCell id="ND2nk44NkYMLTYRBF1Ve-82" value="is_cash: bool" style="text;strokeColor=none;fillColor=none;align=left;verticalAlign=top;spacingLeft=4;spacingRight=4;overflow=hidden;rotatable=0;points=[[0,0.5],[1,0.5]];portConstraint=eastwest;whiteSpace=wrap;html=1;" vertex="1" parent="ND2nk44NkYMLTYRBF1Ve-72">
          <mxGeometry y="104" width="170" height="26" as="geometry" />
        </mxCell>
        <mxCell id="ND2nk44NkYMLTYRBF1Ve-76" value="is_riding: bool" style="text;strokeColor=none;fillColor=none;align=left;verticalAlign=top;spacingLeft=4;spacingRight=4;overflow=hidden;rotatable=0;points=[[0,0.5],[1,0.5]];portConstraint=eastwest;whiteSpace=wrap;html=1;" vertex="1" parent="ND2nk44NkYMLTYRBF1Ve-72">
          <mxGeometry y="130" width="170" height="26" as="geometry" />
        </mxCell>
        <mxCell id="ND2nk44NkYMLTYRBF1Ve-77" value="is_accpeted: bool" style="text;strokeColor=none;fillColor=none;align=left;verticalAlign=top;spacingLeft=4;spacingRight=4;overflow=hidden;rotatable=0;points=[[0,0.5],[1,0.5]];portConstraint=eastwest;whiteSpace=wrap;html=1;" vertex="1" parent="ND2nk44NkYMLTYRBF1Ve-72">
          <mxGeometry y="156" width="170" height="26" as="geometry" />
        </mxCell>
        <mxCell id="ND2nk44NkYMLTYRBF1Ve-78" value="fee_amount: int" style="text;strokeColor=none;fillColor=none;align=left;verticalAlign=top;spacingLeft=4;spacingRight=4;overflow=hidden;rotatable=0;points=[[0,0.5],[1,0.5]];portConstraint=eastwest;whiteSpace=wrap;html=1;" vertex="1" parent="ND2nk44NkYMLTYRBF1Ve-72">
          <mxGeometry y="182" width="170" height="26" as="geometry" />
        </mxCell>
        <mxCell id="ND2nk44NkYMLTYRBF1Ve-80" value="" style="line;strokeWidth=1;fillColor=none;align=left;verticalAlign=middle;spacingTop=-1;spacingLeft=3;spacingRight=3;rotatable=0;labelPosition=right;points=[];portConstraint=eastwest;strokeColor=inherit;" vertex="1" parent="ND2nk44NkYMLTYRBF1Ve-72">
          <mxGeometry y="208" width="170" height="8" as="geometry" />
        </mxCell>
        <mxCell id="ND2nk44NkYMLTYRBF1Ve-81" value="accpet(float)" style="text;strokeColor=none;fillColor=none;align=left;verticalAlign=top;spacingLeft=4;spacingRight=4;overflow=hidden;rotatable=0;points=[[0,0.5],[1,0.5]];portConstraint=eastwest;whiteSpace=wrap;html=1;" vertex="1" parent="ND2nk44NkYMLTYRBF1Ve-72">
          <mxGeometry y="216" width="170" height="26" as="geometry" />
        </mxCell>
        <mxCell id="ND2nk44NkYMLTYRBF1Ve-62" value="Trip" style="swimlane;fontStyle=1;align=center;verticalAlign=top;childLayout=stackLayout;horizontal=1;startSize=26;horizontalStack=0;resizeParent=1;resizeParentMax=0;resizeLast=0;collapsible=1;marginBottom=0;whiteSpace=wrap;html=1;" vertex="1" parent="ND2nk44NkYMLTYRBF1Ve-112">
          <mxGeometry x="250" y="323" width="170" height="242" as="geometry" />
        </mxCell>
        <mxCell id="ND2nk44NkYMLTYRBF1Ve-63" value="id: int" style="text;strokeColor=none;fillColor=none;align=left;verticalAlign=top;spacingLeft=4;spacingRight=4;overflow=hidden;rotatable=0;points=[[0,0.5],[1,0.5]];portConstraint=eastwest;whiteSpace=wrap;html=1;" vertex="1" parent="ND2nk44NkYMLTYRBF1Ve-62">
          <mxGeometry y="26" width="170" height="26" as="geometry" />
        </mxCell>
        <mxCell id="ND2nk44NkYMLTYRBF1Ve-64" value="from_longitude: float" style="text;strokeColor=none;fillColor=none;align=left;verticalAlign=top;spacingLeft=4;spacingRight=4;overflow=hidden;rotatable=0;points=[[0,0.5],[1,0.5]];portConstraint=eastwest;whiteSpace=wrap;html=1;" vertex="1" parent="ND2nk44NkYMLTYRBF1Ve-62">
          <mxGeometry y="52" width="170" height="26" as="geometry" />
        </mxCell>
        <mxCell id="ND2nk44NkYMLTYRBF1Ve-65" value="from_latitude: float" style="text;strokeColor=none;fillColor=none;align=left;verticalAlign=top;spacingLeft=4;spacingRight=4;overflow=hidden;rotatable=0;points=[[0,0.5],[1,0.5]];portConstraint=eastwest;whiteSpace=wrap;html=1;" vertex="1" parent="ND2nk44NkYMLTYRBF1Ve-62">
          <mxGeometry y="78" width="170" height="26" as="geometry" />
        </mxCell>
        <mxCell id="ND2nk44NkYMLTYRBF1Ve-66" value="to_longitude: float" style="text;strokeColor=none;fillColor=none;align=left;verticalAlign=top;spacingLeft=4;spacingRight=4;overflow=hidden;rotatable=0;points=[[0,0.5],[1,0.5]];portConstraint=eastwest;whiteSpace=wrap;html=1;" vertex="1" parent="ND2nk44NkYMLTYRBF1Ve-62">
          <mxGeometry y="104" width="170" height="26" as="geometry" />
        </mxCell>
        <mxCell id="ND2nk44NkYMLTYRBF1Ve-67" value="to_latitude: float" style="text;strokeColor=none;fillColor=none;align=left;verticalAlign=top;spacingLeft=4;spacingRight=4;overflow=hidden;rotatable=0;points=[[0,0.5],[1,0.5]];portConstraint=eastwest;whiteSpace=wrap;html=1;" vertex="1" parent="ND2nk44NkYMLTYRBF1Ve-62">
          <mxGeometry y="130" width="170" height="26" as="geometry" />
        </mxCell>
        <mxCell id="ND2nk44NkYMLTYRBF1Ve-71" value="driver: Driver" style="text;strokeColor=none;fillColor=none;align=left;verticalAlign=top;spacingLeft=4;spacingRight=4;overflow=hidden;rotatable=0;points=[[0,0.5],[1,0.5]];portConstraint=eastwest;whiteSpace=wrap;html=1;" vertex="1" parent="ND2nk44NkYMLTYRBF1Ve-62">
          <mxGeometry y="156" width="170" height="26" as="geometry" />
        </mxCell>
        <mxCell id="ND2nk44NkYMLTYRBF1Ve-68" value="is_full: bool" style="text;strokeColor=none;fillColor=none;align=left;verticalAlign=top;spacingLeft=4;spacingRight=4;overflow=hidden;rotatable=0;points=[[0,0.5],[1,0.5]];portConstraint=eastwest;whiteSpace=wrap;html=1;" vertex="1" parent="ND2nk44NkYMLTYRBF1Ve-62">
          <mxGeometry y="182" width="170" height="26" as="geometry" />
        </mxCell>
        <mxCell id="ND2nk44NkYMLTYRBF1Ve-69" value="" style="line;strokeWidth=1;fillColor=none;align=left;verticalAlign=middle;spacingTop=-1;spacingLeft=3;spacingRight=3;rotatable=0;labelPosition=right;points=[];portConstraint=eastwest;strokeColor=inherit;" vertex="1" parent="ND2nk44NkYMLTYRBF1Ve-62">
          <mxGeometry y="208" width="170" height="8" as="geometry" />
        </mxCell>
        <mxCell id="ND2nk44NkYMLTYRBF1Ve-70" value="getRequests(): Request" style="text;strokeColor=none;fillColor=none;align=left;verticalAlign=top;spacingLeft=4;spacingRight=4;overflow=hidden;rotatable=0;points=[[0,0.5],[1,0.5]];portConstraint=eastwest;whiteSpace=wrap;html=1;" vertex="1" parent="ND2nk44NkYMLTYRBF1Ve-62">
          <mxGeometry y="216" width="170" height="26" as="geometry" />
        </mxCell>
        <mxCell id="ND2nk44NkYMLTYRBF1Ve-123" value="" style="endArrow=diamondThin;endFill=1;endSize=24;html=1;rounded=0;edgeStyle=orthogonalEdgeStyle;" edge="1" parent="ND2nk44NkYMLTYRBF1Ve-112" source="ND2nk44NkYMLTYRBF1Ve-42" target="ND2nk44NkYMLTYRBF1Ve-30">
          <mxGeometry width="160" relative="1" as="geometry">
            <mxPoint x="20" y="193" as="sourcePoint" />
            <mxPoint x="180" y="193" as="targetPoint" />
          </mxGeometry>
        </mxCell>
        <mxCell id="ND2nk44NkYMLTYRBF1Ve-124" value="" style="endArrow=diamondThin;endFill=0;endSize=24;html=1;rounded=0;edgeStyle=orthogonalEdgeStyle;" edge="1" parent="ND2nk44NkYMLTYRBF1Ve-112" source="ND2nk44NkYMLTYRBF1Ve-53" target="ND2nk44NkYMLTYRBF1Ve-30">
          <mxGeometry width="160" relative="1" as="geometry">
            <mxPoint x="20" y="243" as="sourcePoint" />
            <mxPoint x="180" y="243" as="targetPoint" />
            <Array as="points">
              <mxPoint x="170" y="187" />
            </Array>
          </mxGeometry>
        </mxCell>
        <mxCell id="ND2nk44NkYMLTYRBF1Ve-125" value="" style="endArrow=diamondThin;endFill=0;endSize=24;html=1;rounded=0;edgeStyle=orthogonalEdgeStyle;" edge="1" parent="ND2nk44NkYMLTYRBF1Ve-112" source="ND2nk44NkYMLTYRBF1Ve-53" target="ND2nk44NkYMLTYRBF1Ve-18">
          <mxGeometry width="160" relative="1" as="geometry">
            <mxPoint x="30" y="253" as="sourcePoint" />
            <mxPoint x="190" y="253" as="targetPoint" />
            <Array as="points">
              <mxPoint x="430" y="213" />
              <mxPoint x="430" y="171" />
            </Array>
          </mxGeometry>
        </mxCell>
        <mxCell id="ND2nk44NkYMLTYRBF1Ve-128" value="" style="endArrow=diamondThin;endFill=0;endSize=24;html=1;rounded=0;edgeStyle=orthogonalEdgeStyle;" edge="1" parent="ND2nk44NkYMLTYRBF1Ve-112" source="ND2nk44NkYMLTYRBF1Ve-72" target="ND2nk44NkYMLTYRBF1Ve-18">
          <mxGeometry width="160" relative="1" as="geometry">
            <mxPoint x="430" y="223" as="sourcePoint" />
            <mxPoint x="480" y="181" as="targetPoint" />
            <Array as="points">
              <mxPoint x="550" y="183" />
              <mxPoint x="550" y="183" />
            </Array>
          </mxGeometry>
        </mxCell>
        <mxCell id="ND2nk44NkYMLTYRBF1Ve-130" value="" style="endArrow=diamondThin;endFill=0;endSize=24;html=1;rounded=0;edgeStyle=orthogonalEdgeStyle;" edge="1" parent="ND2nk44NkYMLTYRBF1Ve-112" source="ND2nk44NkYMLTYRBF1Ve-30" target="ND2nk44NkYMLTYRBF1Ve-62">
          <mxGeometry width="160" relative="1" as="geometry">
            <mxPoint x="220" y="-77" as="sourcePoint" />
            <mxPoint x="480" y="181" as="targetPoint" />
            <Array as="points">
              <mxPoint x="220" y="443" />
              <mxPoint x="220" y="443" />
            </Array>
          </mxGeometry>
        </mxCell>
        <mxCell id="ND2nk44NkYMLTYRBF1Ve-131" value="" style="endArrow=diamondThin;endFill=1;endSize=24;html=1;rounded=0;edgeStyle=orthogonalEdgeStyle;" edge="1" parent="ND2nk44NkYMLTYRBF1Ve-112" source="ND2nk44NkYMLTYRBF1Ve-62" target="ND2nk44NkYMLTYRBF1Ve-72">
          <mxGeometry width="160" relative="1" as="geometry">
            <mxPoint x="135" y="155" as="sourcePoint" />
            <mxPoint x="135" y="233" as="targetPoint" />
          </mxGeometry>
        </mxCell>
        <mxCell id="ND2nk44NkYMLTYRBF1Ve-132" value="Use" style="endArrow=open;endSize=12;dashed=1;html=1;rounded=0;" edge="1" parent="WIyWlLk6GJQsqaUBKTNV-1" source="ND2nk44NkYMLTYRBF1Ve-112" target="ND2nk44NkYMLTYRBF1Ve-107">
          <mxGeometry width="160" relative="1" as="geometry">
            <mxPoint x="990" y="470" as="sourcePoint" />
            <mxPoint x="1150" y="470" as="targetPoint" />
          </mxGeometry>
        </mxCell>
        <mxCell id="ND2nk44NkYMLTYRBF1Ve-133" value="Use" style="endArrow=open;endSize=12;dashed=1;html=1;rounded=0;" edge="1" parent="WIyWlLk6GJQsqaUBKTNV-1" source="ND2nk44NkYMLTYRBF1Ve-109" target="ND2nk44NkYMLTYRBF1Ve-112">
          <mxGeometry width="160" relative="1" as="geometry">
            <mxPoint x="1000" y="480" as="sourcePoint" />
            <mxPoint x="1160" y="480" as="targetPoint" />
          </mxGeometry>
        </mxCell>
      </root>
    </mxGraphModel>
  </diagram>
</mxfile>
